PathFileType	4	(X/Y/Z)	Walk1.trc
DataRate	CameraRate	NumFrames	NumMarkers	Units	OrigDataRate	OrigDataStartFrame	OrigNumFrames
200.000000	200.000000	4	69	mm	200.000000	494	577
Frame#	Times		LFHD		RFHD		RBHD		C7		CLAV		STRN		RBack		LASI		RASI		RACR1		RUA1		RFA1		RWRU		LACR1		LUA1		LElbow		LWRU		RTH3		RTH2		RTH4		RLFC		RMT5		LTH3		LTH2		LTH4		LLFC		LTB1		LTB3		LTB2		LTB4		LLMAL		LMMAL		LMT1		LMT5		LToe		LowerBodyModelVer		PELOrigin		LFA1		LTH1		LBHD		RElbow		RPSI		LCAR		LPSI		RCAL		LHJC		MidPelvis		OPelvis		RHJC		SACR		XPelvis		YPelvis		ZPelvis		RTH1		RMT1		RElbowM		RToe		RLMAL		RCAR		LWRR		RTB2		RTB1		RWRR		RTB3		RTB4		RMMAL		T10		LCAL		LElbowM
			X1	Y1	Z1	X2	Y2	Z2	X3	Y3	Z3	X4	Y4	Z4	X5	Y5	Z5	X6	Y6	Z6	X7	Y7	Z7	X8	Y8	Z8	X9	Y9	Z9	X10	Y10	Z10	X11	Y11	Z11	X12	Y12	Z12	X13	Y13	Z13	X14	Y14	Z14	X15	Y15	Z15	X16	Y16	Z16	X17	Y17	Z17	X18	Y18	Z18	X19	Y19	Z19	X20	Y20	Z20	X21	Y21	Z21	X22	Y22	Z22	X23	Y23	Z23	X24	Y24	Z24	X25	Y25	Z25	X26	Y26	Z26	X27	Y27	Z27	X28	Y28	Z28	X29	Y29	Z29	X30	Y30	Z30	X31	Y31	Z31	X32	Y32	Z32	X33	Y33	Z33	X34	Y34	Z34	X35	Y35	Z35	X36	Y36	Z36	X37	Y37	Z37	X38	Y38	Z38	X39	Y39	Z39	X40	Y40	Z40	X41	Y41	Z41	X42	Y42	Z42	X43	Y43	Z43	X44	Y44	Z44	X45	Y45	Z45	X46	Y46	Z46	X47	Y47	Z47	X48	Y48	Z48	X49	Y49	Z49	X50	Y50	Z50	X51	Y51	Z51	X52	Y52	Z52	X53	Y53	Z53	X54	Y54	Z54	X55	Y55	Z55	X56	Y56	Z56	X57	Y57	Z57	X58	Y58	Z58	X59	Y59	Z59	X60	Y60	Z60	X61	Y61	Z61	X62	Y62	Z62	X63	Y63	Z63	X64	Y64	Z64	X65	Y65	Z65	X66	Y66	Z66	X67	Y67	Z67	X68	Y68	Z68	X69	Y69	Z69

494	2.47	729.09	1535	-61.208	730.62	1534.9	36.755	564.9	1572.6	47.947	488.76	1409.6	-2.2435	643.76	1323.6	-13.757	703.71	1205.8	-4.2216	428.94	1312	99.293	642.31	949.56	-177.53	637.11	943.55	171.61	574.76	1371.2	163.87	540.84	1232.3	259.22	569.43	950.51	318.63	561.57	845.84	352.58	568.6	1340.8	-193.27	527.85	1193.5	-260.53	442.87	1063.9	-282.94	404.18	823.47	-340.12	500.84	539.47	197.24	575.56	613.81	193.15	519.15	623.55	210.55	480.41	450.24	189.71	331.44	28.516	185.99	674.45	567.54	-171.49	705.61	667.71	-165.32	659.04	650.19	-199.1	665.02	490.28	-156.45	703.35	335.74	-59.573	686.04	165.56	-69.509	690.15	255.87	-127.47	690.95	251.25	-65.568	641.24	70.065	-133.65	652.25	73.213	-48.322	777.65	35.115	-56.437	757.92	26.821	-146.27	819.95	30.917	-57.937	9	2014	4	639.71	946.56	-2.9615	460.7	931.58	-316.12	645.96	730.54	-223.77	577.79	1556.7	-86.731	496.46	1074.4	307.66	385.92	973.88	30.753	432.74	770.08	-344.96	403.2	974.24	-103.62	188.56	118.28	135.37	548.95	846.36	-124.8	517.13	960.31	-19.697	639.71	946.56	-2.9615	545.42	842.27	112.61	394.56	974.06	-36.432	719.22	937.82	-1.9271	648.42	1026.1	-1.4635	638.52	945.18	77.018	548.28	702.37	223.75	350.43	38.836	98.503	454.07	1055.1	227.86	390.14	29.226	107.18	250.86	124.08	182.04	606.98	796.44	336.97	459.61	810.04	-291.78	403.34	278.99	183.25	473.84	325.45	117.39	596.2	847.83	286.26	344.42	194.02	105.03	409.13	259.73	111.21	274.74	123.24	98.377	420.19	1078.5	-10.224	586.46	29.913	-92.831	445.32	1028.8	-179.58
495	2.475	733.71	1535.5	-62.533	735.08	1535.5	35.438	569.45	1573.6	46.375	493.01	1410.4	-3.9733	648.08	1324.6	-15.233	708.04	1207.1	-5.9072	433.02	1313.1	97.602	646.57	950.5	-178.95	641.62	945.2	170.47	578.75	1372.3	162.26	544.55	1233.5	257.66	571.86	951.19	316.67	563.38	846.49	350.74	573	1341.7	-194.74	533	1194.2	-261.9	448.38	1064.3	-284.26	411.07	823.48	-341.01	507.9	539.85	197.59	581.98	614.81	193.42	525.39	624.19	210.65	488.19	450.69	190.4	332.56	29.4	185.85	675.67	567.3	-173	708.64	666.91	-166.72	661.62	650.26	-200.34	666.32	490.13	-157.41	704.57	335.65	-60.303	686.42	165.55	-69.766	691	255.68	-128	691.74	251.22	-66.093	641.3	70.03	-133.83	652.24	73.331	-48.478	777.61	35.158	-56.497	757.95	26.81	-146.36	819.98	30.959	-58.044	9	2014	4	644.09	947.85	-4.2433	466.93	931.95	-317.02	649.9	730.91	-224.79	582.52	1557.6	-88.29	499.56	1075.4	305.69	390.32	974.54	29.99	439.88	770.17	-345.5	407.53	974.97	-104.31	192.57	123.92	135.77	553.4	847.13	-125.91	521.51	961.3	-20.701	644.09	947.85	-4.2433	550.04	843.53	111.7	398.93	974.75	-37.159	723.63	939.29	-3.2461	652.64	1027.4	-2.9162	642.96	946.64	75.739	553.49	703.41	223.58	351.28	39.337	98.496	457.37	1056.5	225.62	390.4	29.137	107.08	254.78	127.8	182.51	608.33	796.61	334.83	466.36	810.48	-292.39	409.23	280.5	184.16	480.79	325.71	118.67	597.9	848.31	284.33	349.49	196.28	105.87	415.14	260.99	112.27	278.78	126.6	98.979	424.62	1079.3	-11.334	586.43	29.915	-92.972	450.21	1029.6	-180.82
496	2.48	738.3	1536	-63.813	739.52	1536	34.165	573.96	1574.5	44.847	497.23	1411.2	-5.7194	652.38	1325.6	-16.689	712.37	1208.3	-7.5625	437.07	1314.1	95.872	650.83	951.44	-180.33	646.07	946.86	169.43	582.67	1373.5	160.68	548.2	1234.7	256.14	574.26	951.89	314.74	565.17	847.15	348.93	577.37	1342.6	-196.2	538.16	1194.9	-263.3	453.9	1064.7	-285.59	418.07	823.5	-341.93	515.06	540.22	197.97	588.44	615.84	193.74	531.67	624.84	210.79	496.09	451.14	191.11	333.97	30.483	185.72	676.62	566.95	-174.46	711.42	665.97	-168.22	663.92	650.18	-201.61	667.43	489.95	-158.35	705.61	335.56	-60.97	686.77	165.53	-70.021	691.74	255.5	-128.51	692.43	251.2	-66.593	641.35	69.993	-133.99	652.22	73.436	-48.617	777.58	35.2	-56.553	757.96	26.803	-146.44	820.01	31.016	-58.151	9	2014	4	648.45	949.15	-5.4485	473.22	932.33	-317.93	653.54	731.08	-225.91	587.21	1558.5	-89.807	502.63	1076.5	303.75	394.7	975.21	29.214	447.14	770.27	-346.06	411.87	975.7	-105.01	196.86	129.56	136.16	557.83	847.89	-126.97	525.87	962.3	-21.673	648.45	949.15	-5.4485	554.59	844.77	110.87	403.29	975.45	-37.897	728	940.75	-4.4754	656.83	1028.7	-4.2929	647.36	948.1	74.537	558.72	704.46	223.44	352.34	39.919	98.493	460.66	1057.9	223.41	390.87	29.058	106.99	258.96	131.58	182.94	609.65	796.77	332.7	473.23	810.96	-293.05	415.3	282.04	185.04	487.91	325.99	119.94	599.58	848.81	282.42	354.75	198.58	106.67	421.33	262.28	113.3	283.04	129.97	99.522	429.04	1080	-12.444	586.39	29.909	-93.095	455.07	1030.3	-182.08
497	2.485	742.86	1536.6	-65.051	743.92	1536.6	32.935	578.44	1575.4	43.363	501.44	1412	-7.4789	656.67	1326.6	-18.125	716.69	1209.6	-9.1894	441.08	1315.1	94.107	655.1	952.36	-181.65	650.47	948.51	168.51	586.51	1374.6	159.12	551.79	1236	254.66	576.64	952.59	312.85	566.94	847.81	347.15	581.73	1343.5	-197.64	543.31	1195.6	-264.7	459.43	1065.1	-286.95	425.18	823.51	-342.88	522.3	540.59	198.37	594.94	616.88	194.08	538	625.47	210.96	504.11	451.61	191.82	335.7	31.777	185.61	677.32	566.5	-175.87	713.96	664.91	-169.8	665.94	649.95	-202.88	668.38	489.74	-159.26	706.48	335.48	-61.561	687.07	165.51	-70.268	692.4	255.33	-128.99	693.02	251.17	-67.056	641.38	69.954	-134.13	652.21	73.525	-48.735	777.53	35.235	-56.602	757.97	26.8	-146.5	820.03	31.078	-58.257	9	2014	4	652.78	950.43	-6.5742	479.56	932.74	-318.88	656.9	731.06	-227.1	591.88	1559.3	-91.283	505.68	1077.6	301.85	399.06	975.87	28.427	454.53	770.39	-346.64	416.21	976.44	-105.72	201.42	135.16	136.54	562.24	848.62	-127.98	530.21	963.29	-22.61	652.78	950.43	-6.5742	559.09	846	110.13	407.64	976.15	-38.645	732.35	942.2	-5.6124	661	1030	-5.5889	651.73	949.55	73.414	563.98	705.5	223.32	353.66	40.595	98.509	463.94	1059.3	221.24	391.62	28.996	106.95	263.4	135.39	183.3	610.93	796.94	330.6	480.23	811.47	-293.74	421.53	283.6	185.88	495.16	326.3	121.18	601.24	849.33	280.55	360.19	200.88	107.41	427.68	263.59	114.29	287.52	133.35	99.994	433.46	1080.7	-13.551	586.36	29.898	-93.2	459.93	1031.1	-183.38
